<svg xmlns="http://www.w3.org/2000/svg" xmlns:xlink="http://www.w3.org/1999/xlink" version="1.1" width="256" height="256" viewBox="0 0 256 256" xml:space="preserve">

<defs>
</defs>
<g style="stroke: none; stroke-width: 0; stroke-dasharray: none; stroke-linecap: butt; stroke-linejoin: miter; stroke-miterlimit: 10; fill: none; fill-rule: nonzero; opacity: 1;" transform="translate(1.4065934065934016 1.4065934065934016) scale(2.81 2.81)" >
	<path d="M 84.108 21.62 c -0.349 0 -0.688 -0.183 -0.871 -0.508 C 77.347 10.691 66.26 4.217 54.302 4.217 c -10.208 0 -19.703 4.595 -26.05 12.606 c -0.343 0.433 -0.971 0.504 -1.405 0.163 c -0.433 -0.343 -0.506 -0.972 -0.163 -1.405 C 33.413 7.089 43.479 2.217 54.302 2.217 c 12.678 0 24.432 6.863 30.676 17.91 c 0.272 0.481 0.103 1.091 -0.378 1.363 C 84.444 21.578 84.275 21.62 84.108 21.62 z" style="stroke: none; stroke-width: 1; stroke-dasharray: none; stroke-linecap: butt; stroke-linejoin: miter; stroke-miterlimit: 10; fill: rgb(248,204,29); fill-rule: nonzero; opacity: 1;" transform=" matrix(1 0 0 1 0 0) " stroke-linecap="round" />
	<path d="M 33.773 88.338 c -10.823 0 -20.889 -4.871 -27.617 -13.364 c -0.343 -0.433 -0.27 -1.062 0.163 -1.405 c 0.432 -0.343 1.061 -0.271 1.405 0.163 c 6.347 8.012 15.842 12.606 26.05 12.606 c 11.957 0 23.044 -6.474 28.936 -16.895 c 0.272 -0.481 0.883 -0.649 1.362 -0.378 c 0.48 0.271 0.65 0.882 0.378 1.362 C 58.204 81.476 46.45 88.338 33.773 88.338 z" style="stroke: none; stroke-width: 1; stroke-dasharray: none; stroke-linecap: butt; stroke-linejoin: miter; stroke-miterlimit: 10; fill: rgb(248,204,29); fill-rule: nonzero; opacity: 1;" transform=" matrix(1 0 0 1 0 0) " stroke-linecap="round" />
	<path d="M 88.736 26.119 h -0.955 v -0.956 c 0 -0.552 -0.447 -1 -1 -1 s -1 0.448 -1 1 v 0.956 h -0.956 c -0.553 0 -1 0.448 -1 1 s 0.447 1 1 1 h 0.956 v 0.956 c 0 0.552 0.447 1 1 1 s 1 -0.448 1 -1 v -0.956 h 0.955 c 0.553 0 1 -0.448 1 -1 S 89.289 26.119 88.736 26.119 z" style="stroke: none; stroke-width: 1; stroke-dasharray: none; stroke-linecap: butt; stroke-linejoin: miter; stroke-miterlimit: 10; fill: rgb(248,204,29); fill-rule: nonzero; opacity: 1;" transform=" matrix(1 0 0 1 0 0) " stroke-linecap="round" />
	<path d="M 26.947 6.032 c -0.806 0 -1.563 -0.314 -2.133 -0.884 c -0.57 -0.569 -0.884 -1.327 -0.884 -2.133 c 0 -0.806 0.314 -1.563 0.884 -2.133 c 1.176 -1.176 3.09 -1.175 4.266 0 c 1.176 1.177 1.176 3.09 0 4.266 C 28.51 5.718 27.753 6.032 26.947 6.032 z M 26.947 2 c -0.26 0 -0.521 0.099 -0.719 0.297 c -0.192 0.191 -0.298 0.447 -0.298 0.718 s 0.106 0.527 0.298 0.718 c 0.396 0.396 1.041 0.397 1.438 0 c 0.396 -0.396 0.396 -1.041 0 -1.438 C 27.468 2.099 27.208 2 26.947 2 z" style="stroke: none; stroke-width: 1; stroke-dasharray: none; stroke-linecap: butt; stroke-linejoin: miter; stroke-miterlimit: 10; fill: rgb(248,204,29); fill-rule: nonzero; opacity: 1;" transform=" matrix(1 0 0 1 0 0) " stroke-linecap="round" />
	<path d="M 15.939 63.824 c -0.218 0 -0.437 -0.07 -0.621 -0.216 C 6.826 56.88 1.955 46.814 1.955 35.99 c 0 -12.677 6.863 -24.432 17.91 -30.676 c 0.482 -0.272 1.091 -0.102 1.363 0.378 c 0.271 0.481 0.102 1.091 -0.378 1.363 C 10.428 12.945 3.955 24.033 3.955 35.99 c 0 10.209 4.595 19.704 12.606 26.05 c 0.433 0.344 0.506 0.973 0.163 1.405 C 16.526 63.695 16.234 63.824 15.939 63.824 z" style="stroke: none; stroke-width: 1; stroke-dasharray: none; stroke-linecap: butt; stroke-linejoin: miter; stroke-miterlimit: 10; fill: rgb(248,204,29); fill-rule: nonzero; opacity: 1;" transform=" matrix(1 0 0 1 0 0) " stroke-linecap="round" />
	<path d="M 74.091 84.353 c -0.295 0 -0.588 -0.13 -0.785 -0.379 c -0.343 -0.433 -0.27 -1.062 0.163 -1.405 c 8.012 -6.347 12.606 -15.841 12.606 -26.049 c 0 -11.958 -6.474 -23.045 -16.895 -28.936 c -0.48 -0.272 -0.65 -0.882 -0.378 -1.363 c 0.271 -0.481 0.883 -0.65 1.362 -0.378 c 11.047 6.245 17.91 17.999 17.91 30.677 c 0 10.822 -4.871 20.889 -13.364 27.617 C 74.527 84.282 74.308 84.353 74.091 84.353 z" style="stroke: none; stroke-width: 1; stroke-dasharray: none; stroke-linecap: butt; stroke-linejoin: miter; stroke-miterlimit: 10; fill: rgb(248,204,29); fill-rule: nonzero; opacity: 1;" transform=" matrix(1 0 0 1 0 0) " stroke-linecap="round" />
	<path d="M 67.756 89.999 c -0.807 0 -1.563 -0.313 -2.134 -0.884 c -1.175 -1.175 -1.175 -3.089 0 -4.266 c 1.178 -1.176 3.089 -1.175 4.267 -0.001 l 0.001 0.001 c 1.175 1.177 1.175 3.091 -0.001 4.266 C 69.318 89.686 68.562 89.999 67.756 89.999 z M 67.756 85.967 c -0.261 0 -0.521 0.099 -0.719 0.297 c -0.396 0.396 -0.396 1.041 0 1.438 c 0.385 0.385 1.053 0.385 1.438 0 c 0.396 -0.396 0.396 -1.04 0 -1.437 l 0 0 C 68.276 86.067 68.016 85.967 67.756 85.967 z" style="stroke: none; stroke-width: 1; stroke-dasharray: none; stroke-linecap: butt; stroke-linejoin: miter; stroke-miterlimit: 10; fill: rgb(248,204,29); fill-rule: nonzero; opacity: 1;" transform=" matrix(1 0 0 1 0 0) " stroke-linecap="round" />
	<path d="M 5.174 67.515 H 4.219 v -0.956 c 0 -0.553 -0.448 -1 -1 -1 s -1 0.447 -1 1 v 0.956 H 1.264 c -0.552 0 -1 0.447 -1 1 s 0.448 1 1 1 h 0.956 v 0.955 c 0 0.553 0.448 1 1 1 s 1 -0.447 1 -1 v -0.955 h 0.955 c 0.552 0 1 -0.447 1 -1 S 5.727 67.515 5.174 67.515 z" style="stroke: none; stroke-width: 1; stroke-dasharray: none; stroke-linecap: butt; stroke-linejoin: miter; stroke-miterlimit: 10; fill: rgb(248,204,29); fill-rule: nonzero; opacity: 1;" transform=" matrix(1 0 0 1 0 0) " stroke-linecap="round" />
	<circle cx="45" cy="45" r="18" style="stroke: none; stroke-width: 1; stroke-dasharray: none; stroke-linecap: butt; stroke-linejoin: miter; stroke-miterlimit: 10; fill: rgb(248,204,29); fill-rule: nonzero; opacity: 1;" transform="  matrix(1 0 0 1 0 0) "/>
	<path d="M 49.277 70.999 h -8.555 c -1.116 0 -2.024 -0.908 -2.024 -2.024 v -1.273 c 0 -0.677 -0.41 -1.273 -1.019 -1.483 c -0.851 -0.294 -1.696 -0.646 -2.512 -1.044 c -0.575 -0.282 -1.279 -0.151 -1.753 0.321 l -0.913 0.913 c -0.79 0.789 -2.073 0.788 -2.862 0.001 l -6.049 -6.05 c -0.382 -0.383 -0.593 -0.891 -0.593 -1.432 s 0.21 -1.049 0.593 -1.432 l 0.913 -0.912 c 0.473 -0.473 0.602 -1.178 0.321 -1.754 c -0.397 -0.813 -0.749 -1.657 -1.043 -2.51 c -0.21 -0.61 -0.807 -1.021 -1.483 -1.021 h -1.274 C 19.908 51.3 19 50.393 19 49.277 v -8.555 c 0 -1.116 0.908 -2.024 2.024 -2.024 h 1.274 c 0.677 0 1.273 -0.41 1.483 -1.02 c 0.295 -0.853 0.646 -1.698 1.043 -2.511 c 0.281 -0.576 0.152 -1.28 -0.321 -1.753 l -0.913 -0.913 c -0.789 -0.789 -0.789 -2.073 0 -2.862 l 6.049 -6.049 c 0.789 -0.789 2.073 -0.789 2.862 0 l 0.913 0.913 c 0.473 0.473 1.178 0.602 1.753 0.321 c 0.813 -0.397 1.658 -0.749 2.511 -1.043 c 0.61 -0.21 1.02 -0.807 1.02 -1.483 v -1.274 c 0 -1.116 0.908 -2.024 2.024 -2.024 h 8.554 c 1.116 0 2.023 0.908 2.023 2.024 v 1.274 c 0 0.677 0.41 1.273 1.02 1.483 c 0.854 0.295 1.698 0.646 2.512 1.043 c 0.575 0.281 1.279 0.152 1.753 -0.321 l 0.913 -0.913 c 0.764 -0.765 2.097 -0.764 2.862 0 l 6.049 6.049 c 0.788 0.789 0.788 2.073 0.001 2.862 l -0.914 0.914 c -0.473 0.474 -0.603 1.178 -0.321 1.753 c 0.396 0.808 0.746 1.653 1.044 2.51 c 0.21 0.61 0.807 1.02 1.483 1.02 h 1.273 c 1.116 0 2.024 0.908 2.024 2.024 v 8.555 c 0 1.116 -0.908 2.023 -2.024 2.023 h -1.273 c -0.677 0 -1.273 0.41 -1.483 1.02 c -0.293 0.849 -0.644 1.693 -1.043 2.511 c -0.281 0.576 -0.153 1.28 0.32 1.754 l 0.913 0.913 c 0.788 0.788 0.789 2.072 0.001 2.861 l -6.05 6.05 c -0.788 0.787 -2.071 0.789 -2.861 0.001 l -0.914 -0.914 c -0.474 -0.474 -1.178 -0.602 -1.754 -0.321 c -0.808 0.396 -1.652 0.746 -2.51 1.044 c -0.61 0.21 -1.021 0.807 -1.021 1.483 v 1.273 C 51.301 70.091 50.394 70.999 49.277 70.999 z M 34.529 63.027 c 0.517 0 1.036 0.115 1.518 0.351 c 0.743 0.363 1.512 0.683 2.286 0.95 c 1.416 0.488 2.367 1.844 2.367 3.374 v 1.273 l 8.579 0.024 l 0.023 -1.298 c 0 -1.529 0.951 -2.886 2.367 -3.374 c 0.78 -0.271 1.549 -0.59 2.285 -0.95 c 1.344 -0.656 2.969 -0.373 4.046 0.704 l 0.913 0.913 l 6.083 -6.049 l -0.913 -0.947 c -1.077 -1.077 -1.36 -2.703 -0.703 -4.046 c 0.363 -0.744 0.683 -1.514 0.949 -2.285 c 0.488 -1.416 1.845 -2.367 3.374 -2.367 h 1.273 L 69 40.722 l -0.024 -0.024 h -1.273 c -1.53 0 -2.886 -0.951 -3.374 -2.367 c -0.271 -0.78 -0.59 -1.549 -0.95 -2.285 c -0.656 -1.343 -0.373 -2.968 0.704 -4.046 l 0.913 -0.913 l -6.049 -6.083 l -0.947 0.913 c -1.075 1.077 -2.701 1.361 -4.045 0.704 c -0.741 -0.362 -1.51 -0.681 -2.287 -0.95 c -1.415 -0.489 -2.366 -1.845 -2.366 -3.374 v -1.274 l -8.578 -0.024 l -0.024 1.298 c 0 1.529 -0.951 2.885 -2.366 3.374 c -0.776 0.269 -1.545 0.588 -2.286 0.95 c -1.342 0.657 -2.969 0.374 -4.045 -0.704 l -0.913 -0.913 l -6.083 6.049 L 25.918 32 c 1.077 1.077 1.36 2.703 0.704 4.045 c -0.362 0.741 -0.681 1.51 -0.95 2.286 c -0.489 1.415 -1.845 2.366 -3.374 2.366 h -1.274 L 21 49.277 l 1.298 0.023 c 1.529 0 2.885 0.951 3.374 2.367 c 0.269 0.776 0.588 1.545 0.95 2.285 c 0.656 1.344 0.374 2.97 -0.704 4.046 l -0.913 0.913 l 6.049 6.083 l 0.947 -0.913 C 32.691 63.391 33.607 63.027 34.529 63.027 z M 45.017 59.194 c -3.766 0 -7.379 -1.482 -10.054 -4.157 c -2.942 -2.941 -4.441 -7.02 -4.113 -11.187 c 0.542 -6.87 6.131 -12.458 13 -13 c 4.169 -0.326 8.244 1.171 11.188 4.113 c 2.941 2.942 4.44 7.019 4.111 11.187 c -0.541 6.869 -6.13 12.459 -13 13 C 45.771 59.178 45.394 59.194 45.017 59.194 z M 44.981 32.805 c -0.323 0 -0.648 0.013 -0.974 0.039 c -5.899 0.465 -10.699 5.265 -11.164 11.164 c -0.283 3.583 1.005 7.088 3.533 9.615 c 2.527 2.527 6.033 3.822 9.616 3.532 l 0 0 c 5.899 -0.465 10.698 -5.264 11.163 -11.164 c 0.283 -3.583 -1.005 -7.087 -3.532 -9.615 C 51.325 34.078 48.22 32.805 44.981 32.805 z" style="stroke: none; stroke-width: 1; stroke-dasharray: none; stroke-linecap: butt; stroke-linejoin: miter; stroke-miterlimit: 10; fill: rgb(0,0,0); fill-rule: nonzero; opacity: 1;" transform=" matrix(1 0 0 1 0 0) " stroke-linecap="round" />
</g>
</svg>